<mxfile host="app.diagrams.net" modified="2023-01-05T10:30:44.205Z" agent="5.0 (Windows NT 10.0; Win64; x64) AppleWebKit/537.36 (KHTML, like Gecko) Chrome/108.0.0.0 Safari/537.36" etag="oLL2bXzUmG0TfFLV6bjK" version="20.0.3" type="github">
  <diagram id="jPS-9-22FMXBOKT1L98g" name="第 1 页">
    <mxGraphModel dx="1422" dy="762" grid="1" gridSize="10" guides="1" tooltips="1" connect="1" arrows="1" fold="1" page="1" pageScale="1" pageWidth="2500" pageHeight="1600" math="0" shadow="0">
      <root>
        <mxCell id="0" />
        <mxCell id="1" parent="0" />
        <mxCell id="KiZYvZzVOd2lVrMkMhb5-1" value="" style="shape=flexArrow;endArrow=classic;html=1;rounded=0;width=10;fillColor=#fff2cc;strokeColor=#d6b656;sketch=1;" edge="1" parent="1">
          <mxGeometry width="50" height="50" relative="1" as="geometry">
            <mxPoint x="250" y="140" as="sourcePoint" />
            <mxPoint x="250" y="650" as="targetPoint" />
          </mxGeometry>
        </mxCell>
        <mxCell id="KiZYvZzVOd2lVrMkMhb5-10" value="" style="edgeStyle=orthogonalEdgeStyle;rounded=0;orthogonalLoop=1;jettySize=auto;html=1;fillColor=#dae8fc;strokeColor=#6c8ebf;sketch=1;" edge="1" parent="1" source="KiZYvZzVOd2lVrMkMhb5-3" target="KiZYvZzVOd2lVrMkMhb5-9">
          <mxGeometry relative="1" as="geometry" />
        </mxCell>
        <mxCell id="KiZYvZzVOd2lVrMkMhb5-3" value="线程B" style="rounded=0;whiteSpace=wrap;html=1;fillColor=#dae8fc;strokeColor=#6c8ebf;sketch=1;" vertex="1" parent="1">
          <mxGeometry x="480" y="160" width="90" height="40" as="geometry" />
        </mxCell>
        <mxCell id="KiZYvZzVOd2lVrMkMhb5-17" style="edgeStyle=orthogonalEdgeStyle;rounded=0;orthogonalLoop=1;jettySize=auto;html=1;exitX=0.5;exitY=1;exitDx=0;exitDy=0;fillColor=#d5e8d4;strokeColor=#82b366;sketch=1;" edge="1" parent="1" source="KiZYvZzVOd2lVrMkMhb5-4" target="KiZYvZzVOd2lVrMkMhb5-16">
          <mxGeometry relative="1" as="geometry" />
        </mxCell>
        <mxCell id="KiZYvZzVOd2lVrMkMhb5-4" value="线程C" style="rounded=0;whiteSpace=wrap;html=1;fillColor=#d5e8d4;strokeColor=#82b366;sketch=1;" vertex="1" parent="1">
          <mxGeometry x="640" y="160" width="90" height="40" as="geometry" />
        </mxCell>
        <mxCell id="KiZYvZzVOd2lVrMkMhb5-21" value="" style="edgeStyle=orthogonalEdgeStyle;rounded=0;orthogonalLoop=1;jettySize=auto;html=1;fillColor=#dae8fc;strokeColor=#6c8ebf;sketch=1;" edge="1" parent="1" source="KiZYvZzVOd2lVrMkMhb5-9" target="KiZYvZzVOd2lVrMkMhb5-20">
          <mxGeometry relative="1" as="geometry" />
        </mxCell>
        <mxCell id="KiZYvZzVOd2lVrMkMhb5-9" value="读取旧数据" style="rounded=0;whiteSpace=wrap;html=1;fillColor=#dae8fc;strokeColor=#6c8ebf;sketch=1;" vertex="1" parent="1">
          <mxGeometry x="480" y="290" width="90" height="120" as="geometry" />
        </mxCell>
        <mxCell id="KiZYvZzVOd2lVrMkMhb5-19" style="edgeStyle=orthogonalEdgeStyle;rounded=0;orthogonalLoop=1;jettySize=auto;html=1;exitX=0.5;exitY=1;exitDx=0;exitDy=0;entryX=0.5;entryY=0;entryDx=0;entryDy=0;fillColor=#d5e8d4;strokeColor=#82b366;" edge="1" parent="1" source="KiZYvZzVOd2lVrMkMhb5-16" target="KiZYvZzVOd2lVrMkMhb5-18">
          <mxGeometry relative="1" as="geometry" />
        </mxCell>
        <mxCell id="KiZYvZzVOd2lVrMkMhb5-16" value="更新数据库" style="rounded=0;whiteSpace=wrap;html=1;fillColor=#d5e8d4;strokeColor=#82b366;sketch=1;" vertex="1" parent="1">
          <mxGeometry x="640" y="300" width="90" height="40" as="geometry" />
        </mxCell>
        <mxCell id="KiZYvZzVOd2lVrMkMhb5-23" value="" style="edgeStyle=orthogonalEdgeStyle;rounded=0;orthogonalLoop=1;jettySize=auto;html=1;sketch=1;fillColor=#d5e8d4;strokeColor=#82b366;" edge="1" parent="1" source="KiZYvZzVOd2lVrMkMhb5-18" target="KiZYvZzVOd2lVrMkMhb5-22">
          <mxGeometry relative="1" as="geometry" />
        </mxCell>
        <mxCell id="KiZYvZzVOd2lVrMkMhb5-18" value="延迟" style="rounded=0;whiteSpace=wrap;html=1;fillColor=#d5e8d4;strokeColor=#82b366;sketch=1;" vertex="1" parent="1">
          <mxGeometry x="640" y="360" width="90" height="50" as="geometry" />
        </mxCell>
        <mxCell id="KiZYvZzVOd2lVrMkMhb5-20" value="读取数据库数据并更新缓存" style="rounded=0;whiteSpace=wrap;html=1;fillColor=#dae8fc;strokeColor=#6c8ebf;sketch=1;" vertex="1" parent="1">
          <mxGeometry x="480" y="470" width="90" height="50" as="geometry" />
        </mxCell>
        <mxCell id="KiZYvZzVOd2lVrMkMhb5-22" value="删除缓存" style="rounded=0;whiteSpace=wrap;html=1;fillColor=#d5e8d4;strokeColor=#82b366;sketch=1;" vertex="1" parent="1">
          <mxGeometry x="640" y="430" width="90" height="30" as="geometry" />
        </mxCell>
        <mxCell id="KiZYvZzVOd2lVrMkMhb5-24" value="线程B长时间读取旧数据" style="rounded=0;whiteSpace=wrap;html=1;sketch=1;fillColor=#f8cecc;strokeColor=#b85450;" vertex="1" parent="1">
          <mxGeometry x="330" y="580" width="430" height="40" as="geometry" />
        </mxCell>
        <mxCell id="KiZYvZzVOd2lVrMkMhb5-25" value="&lt;font style=&quot;font-size: 18px;&quot;&gt;&lt;b&gt;时间线&lt;/b&gt;&lt;/font&gt;" style="text;html=1;strokeColor=none;fillColor=none;align=center;verticalAlign=middle;whiteSpace=wrap;rounded=0;sketch=1;" vertex="1" parent="1">
          <mxGeometry x="150" y="160" width="60" height="30" as="geometry" />
        </mxCell>
        <mxCell id="KiZYvZzVOd2lVrMkMhb5-2" value="线程A" style="rounded=0;whiteSpace=wrap;html=1;sketch=1;fillColor=#ffe6cc;strokeColor=#d79b00;" vertex="1" parent="1">
          <mxGeometry x="330" y="160" width="90" height="40" as="geometry" />
        </mxCell>
        <mxCell id="KiZYvZzVOd2lVrMkMhb5-5" value="更新数据库" style="rounded=0;whiteSpace=wrap;html=1;sketch=1;fillColor=#ffe6cc;strokeColor=#d79b00;" vertex="1" parent="1">
          <mxGeometry x="330" y="240" width="90" height="40" as="geometry" />
        </mxCell>
        <mxCell id="KiZYvZzVOd2lVrMkMhb5-6" value="" style="edgeStyle=orthogonalEdgeStyle;rounded=0;orthogonalLoop=1;jettySize=auto;html=1;sketch=1;fillColor=#ffe6cc;strokeColor=#d79b00;" edge="1" parent="1" source="KiZYvZzVOd2lVrMkMhb5-2" target="KiZYvZzVOd2lVrMkMhb5-5">
          <mxGeometry relative="1" as="geometry" />
        </mxCell>
        <mxCell id="KiZYvZzVOd2lVrMkMhb5-7" value="删除缓存" style="rounded=0;whiteSpace=wrap;html=1;sketch=1;fillColor=#ffe6cc;strokeColor=#d79b00;" vertex="1" parent="1">
          <mxGeometry x="330" y="530" width="90" height="30" as="geometry" />
        </mxCell>
        <mxCell id="KiZYvZzVOd2lVrMkMhb5-13" style="edgeStyle=orthogonalEdgeStyle;rounded=0;orthogonalLoop=1;jettySize=auto;html=1;exitX=0.5;exitY=1;exitDx=0;exitDy=0;entryX=0.5;entryY=0;entryDx=0;entryDy=0;sketch=1;fillColor=#ffe6cc;strokeColor=#d79b00;" edge="1" parent="1" source="KiZYvZzVOd2lVrMkMhb5-11" target="KiZYvZzVOd2lVrMkMhb5-7">
          <mxGeometry relative="1" as="geometry" />
        </mxCell>
        <mxCell id="KiZYvZzVOd2lVrMkMhb5-11" value="延迟" style="rounded=0;whiteSpace=wrap;html=1;sketch=1;fillColor=#ffe6cc;strokeColor=#d79b00;" vertex="1" parent="1">
          <mxGeometry x="330" y="320" width="90" height="170" as="geometry" />
        </mxCell>
        <mxCell id="KiZYvZzVOd2lVrMkMhb5-12" value="" style="edgeStyle=orthogonalEdgeStyle;rounded=0;orthogonalLoop=1;jettySize=auto;html=1;sketch=1;fillColor=#ffe6cc;strokeColor=#d79b00;" edge="1" parent="1" source="KiZYvZzVOd2lVrMkMhb5-5" target="KiZYvZzVOd2lVrMkMhb5-11">
          <mxGeometry relative="1" as="geometry" />
        </mxCell>
      </root>
    </mxGraphModel>
  </diagram>
</mxfile>
